<svg width="160" height="32" viewBox="0 0 160 32" fill="none" xmlns="http://www.w3.org/2000/svg">
<g clip-path="url(#clip0_242_260)">
<path d="M16 0C11.6533 0 11.1107 0.02 9.404 0.096C7.7 0.176 6.54 0.444 5.52 0.84C4.468 1.248 3.57467 1.796 2.68533 2.68533C1.796 3.57467 1.24667 4.46667 0.84 5.52C0.444 6.54 0.174667 7.7 0.096 9.404C0.016 11.1107 0 11.6533 0 16C0 20.3467 0.02 20.8893 0.096 22.596C0.176 24.2987 0.444 25.46 0.84 26.48C1.248 27.5307 1.796 28.4253 2.68533 29.3147C3.57467 30.2027 4.46667 30.7533 5.52 31.16C6.54133 31.5547 7.70133 31.8253 9.404 31.904C11.1107 31.984 11.6533 32 16 32C20.3467 32 20.8893 31.98 22.596 31.904C24.2987 31.824 25.46 31.5547 26.48 31.16C27.5307 30.752 28.4253 30.2027 29.3147 29.3147C30.2027 28.4253 30.7533 27.5347 31.16 26.48C31.5547 25.46 31.8253 24.2987 31.904 22.596C31.984 20.8893 32 20.3467 32 16C32 11.6533 31.98 11.1107 31.904 9.404C31.824 7.70133 31.5547 6.53867 31.16 5.52C30.752 4.468 30.2027 3.57467 29.3147 2.68533C28.4253 1.796 27.5347 1.24667 26.48 0.84C25.46 0.444 24.2987 0.174667 22.596 0.096C20.8893 0.016 20.3467 0 16 0ZM16 2.88C20.2707 2.88 20.78 2.90133 22.4667 2.97467C24.0267 3.048 24.8733 3.30667 25.436 3.528C26.1853 3.81733 26.716 4.164 27.2787 4.72267C27.8373 5.28267 28.184 5.81467 28.4733 6.564C28.692 7.12667 28.9533 7.97333 29.024 9.53333C29.1 11.2213 29.1173 11.728 29.1173 16C29.1173 20.272 29.0973 20.78 29.0187 22.4667C28.9373 24.0267 28.6773 24.8733 28.4573 25.436C28.1587 26.1853 27.8187 26.716 27.2587 27.2787C26.7 27.8373 26.16 28.184 25.4187 28.4733C24.8587 28.692 23.9987 28.9533 22.4387 29.024C20.74 29.1 20.24 29.1173 15.96 29.1173C11.6787 29.1173 11.1787 29.0973 9.48133 29.0187C7.92 28.9373 7.06 28.6773 6.5 28.4573C5.74133 28.1587 5.22 27.8187 4.66133 27.2587C4.1 26.7 3.74133 26.16 3.46133 25.4187C3.24133 24.8587 2.98267 23.9987 2.90133 22.4387C2.84133 20.7587 2.82 20.24 2.82 15.98C2.82 11.7187 2.84133 11.1987 2.90133 9.49867C2.98267 7.93867 3.24133 7.08 3.46133 6.52C3.74133 5.76 4.1 5.24 4.66133 4.67867C5.22 4.12 5.74133 3.76 6.5 3.48133C7.06 3.26 7.90133 3 9.46133 2.92C11.1613 2.86 11.6613 2.84 15.94 2.84L16 2.88ZM16 7.784C11.46 7.784 7.784 11.464 7.784 16C7.784 20.54 11.464 24.216 16 24.216C20.54 24.216 24.216 20.536 24.216 16C24.216 11.46 20.536 7.784 16 7.784ZM16 21.3333C13.0533 21.3333 10.6667 18.9467 10.6667 16C10.6667 13.0533 13.0533 10.6667 16 10.6667C18.9467 10.6667 21.3333 13.0533 21.3333 16C21.3333 18.9467 18.9467 21.3333 16 21.3333ZM26.4613 7.46C26.4613 8.52 25.6 9.38 24.5413 9.38C23.4813 9.38 22.6213 8.51867 22.6213 7.46C22.6213 6.40133 23.4827 5.54133 24.5413 5.54133C25.5987 5.54 26.4613 6.40133 26.4613 7.46Z" fill="url(#paint0_linear_242_260)"/>
</g>
<g clip-path="url(#clip1_242_260)">
<path d="M96 16.0977C96 7.26166 88.836 0.0976562 80 0.0976562C71.164 0.0976562 64 7.26166 64 16.0977C64 24.0843 69.8507 30.703 77.5 31.903V20.723H73.4373V16.0963H77.5V12.5737C77.5 8.56432 79.8893 6.34832 83.544 6.34832C85.2933 6.34832 87.1253 6.66166 87.1253 6.66166V10.599H85.1067C83.1187 10.599 82.4987 11.8323 82.4987 13.0977V16.0977H86.936L86.2267 20.7243H82.4987V31.9043C90.1493 30.703 96 24.083 96 16.0977Z" fill="url(#paint1_linear_242_260)"/>
</g>
<path d="M159.331 8.2479C159.15 7.56693 158.793 6.94541 158.297 6.44558C157.8 5.94575 157.181 5.58515 156.501 5.3999C154.007 4.72656 144 4.72656 144 4.72656C144 4.72656 133.993 4.72656 131.497 5.3999C130.818 5.58548 130.199 5.94621 129.703 6.446C129.206 6.9458 128.85 7.56715 128.669 8.2479C128 10.7599 128 15.9999 128 15.9999C128 15.9999 128 21.2399 128.669 23.7519C128.85 24.4329 129.207 25.0544 129.703 25.5542C130.2 26.054 130.819 26.4146 131.499 26.5999C133.993 27.2732 144 27.2732 144 27.2732C144 27.2732 154.007 27.2732 156.503 26.5999C157.183 26.4148 157.802 26.0542 158.298 25.5544C158.795 25.0545 159.151 24.4329 159.332 23.7519C160 21.2399 160 15.9999 160 15.9999C160 15.9999 160 10.7599 159.331 8.2479ZM140.727 20.7572V11.2426L149.091 15.9999L140.727 20.7572Z" fill="url(#paint2_linear_242_260)"/>
<defs>
<linearGradient id="paint0_linear_242_260" x1="16" y1="0" x2="16" y2="32" gradientUnits="userSpaceOnUse">
<stop stop-color="#FFAA00"/>
<stop offset="1" stop-color="#D6A035"/>
</linearGradient>
<linearGradient id="paint1_linear_242_260" x1="80" y1="0.0976562" x2="80" y2="31.9043" gradientUnits="userSpaceOnUse">
<stop stop-color="#FFAA00"/>
<stop offset="1" stop-color="#D6A035"/>
</linearGradient>
<linearGradient id="paint2_linear_242_260" x1="144" y1="4.72656" x2="144" y2="27.2732" gradientUnits="userSpaceOnUse">
<stop stop-color="#FFAA00"/>
<stop offset="1" stop-color="#D6A035"/>
</linearGradient>
<clipPath id="clip0_242_260">
<rect width="32" height="32" fill="white"/>
</clipPath>
<clipPath id="clip1_242_260">
<rect width="32" height="32" fill="white" transform="translate(64)"/>
</clipPath>
</defs>
</svg>
