<svg width="172" height="47" viewBox="0 0 172 47" fill="none" xmlns="http://www.w3.org/2000/svg">
<path d="M13.9983 28.1221V34.4127C13.9983 37.5579 12.6223 38.6921 10.4355 38.6921C8.24863 38.6921 6.87386 37.5579 6.87386 34.4127V10.6319C6.87386 7.48661 8.24986 6.29058 10.4367 6.29058C12.6236 6.29058 13.9983 7.48661 13.9983 10.6319V15.3504H20.4975V11.0722C20.4975 4.02592 16.9973 0 10.2487 0C3.49897 0 0 4.02592 0 11.0722V33.9723C0 41.0186 3.49897 45.0458 10.2487 45.0458C16.9973 45.0458 20.4975 41.0186 20.4975 33.9723V28.1221H13.9983ZM39.9323 0.503395L46.9314 44.5424H39.9949L38.8069 36.5524H30.3715L29.1835 44.5424H22.8723L29.8715 0.503395H39.9323ZM34.4958 8.30416L31.2463 30.576H37.8695L34.6211 8.30292H34.4971L34.4958 8.30416ZM71.4906 44.5424H64.4914C64.1167 43.4095 63.8661 42.7168 63.8661 39.1312V32.2111C63.8661 28.1221 62.4913 26.6119 59.367 26.6119H56.9922V44.5424H50.1183V0.503395H60.4924C67.6157 0.503395 70.6773 3.83792 70.6773 10.6331V14.0926C70.6773 18.6219 69.2398 21.5161 66.1782 22.9632C69.6158 24.5352 70.7399 27.8067 70.7399 32.4003V39.1943C70.7399 41.334 70.8038 42.9061 71.4906 44.5424ZM60.3044 6.79397H56.9922V20.3213H59.6791C62.2419 20.3213 63.8034 19.1896 63.8034 15.6658V11.3245C63.8034 8.17924 62.7419 6.79397 60.3044 6.79397ZM92.4402 0.503395L99.4393 44.5424H92.5028L91.316 36.5524H82.8794L81.6926 44.5424H75.3802L82.3794 0.503395H92.4402ZM87.0037 8.30416L83.7542 30.576H90.3786L87.1291 8.30292H87.0037V8.30416ZM105.798 0.503395H98.8619L105.61 44.5424H115.859L122.608 0.503395H116.297L111.11 36.425H110.984L105.798 0.503395ZM139.09 0.503395L146.089 44.5424H139.153L137.966 36.5524H129.53L128.341 44.5424H122.03L129.029 0.503395H139.09ZM133.654 8.30416L130.404 30.576H137.029L133.779 8.30292H133.654V8.30416ZM164.938 44.5424H172V0.503395H165.876V26.863H165.75L158.814 0.503395H150.19V44.5424H156.377V12.6442H156.502L164.938 44.5424Z" fill="#9C9C9C"/>
</svg>
