<svg width="187" height="48" viewBox="0 0 187 48" fill="none" xmlns="http://www.w3.org/2000/svg">
<path fill-rule="evenodd" clip-rule="evenodd" d="M28.3255 20.7385H31.6682C35.1227 20.7385 36.989 24.7902 34.7389 27.4154L31.4664 31.2308C31.8208 33.4937 33.0153 35.5397 34.8115 36.9601C36.6093 38.3812 38.8763 39.0729 41.1609 38.8973C43.4455 38.7216 45.5802 37.6916 47.14 36.0124C48.6984 34.3338 49.5662 32.1286 49.5697 29.8376C49.5694 29.4391 49.6477 29.0444 49.8 28.6761C49.9524 28.3079 50.1759 27.9733 50.4577 27.6916C50.7396 27.4099 51.0741 27.1866 51.4424 27.0345C51.8106 26.8823 52.2052 26.8043 52.6035 26.805C53.4078 26.8053 54.179 27.1248 54.748 27.6934C55.317 28.2619 55.6373 29.0331 55.6386 29.8376C55.6384 33.0203 54.6363 36.1221 52.7746 38.7028C51.3806 40.6312 49.5535 42.2051 47.4404 43.2979C45.3272 44.3906 42.9871 44.9716 40.6084 44.9941C38.2298 45.0167 35.8791 44.48 33.7457 43.4275C31.6122 42.3749 29.7557 40.8358 28.3255 38.9342C26.8954 40.8358 25.0389 42.3749 22.9054 43.4275C20.772 44.48 18.4213 45.0167 16.0426 44.9941C13.664 44.9716 11.3238 44.3906 9.21069 43.2979C7.09754 42.2051 5.27044 40.6312 3.87651 38.7028C2.01433 36.1222 1.01182 33.0204 1.01123 29.8376C1.01091 29.439 1.08922 29.0442 1.24167 28.6758C1.39413 28.3075 1.61774 27.9729 1.89968 27.6912C2.18162 27.4095 2.51636 27.1862 2.88472 27.0341C3.25307 26.882 3.6478 26.8042 4.04629 26.805C4.8505 26.8053 5.62173 27.1248 6.19074 27.6934C6.75975 28.2619 7.08005 29.0331 7.08135 29.8376C7.07794 32.1322 7.94195 34.3432 9.50005 36.0271C10.6634 37.2843 12.1575 38.1878 13.8108 38.6342C15.4641 39.0806 17.2096 39.0517 18.8473 38.5508C20.4849 38.0499 21.9482 37.0974 23.0694 35.8024C24.1905 34.5075 24.9241 32.9226 25.1859 31.2296L21.9109 27.4142C19.662 24.7902 21.5271 20.7398 24.9866 20.7398L28.3255 20.7385Z" fill="#9C9C9C"/>
<path d="M42.4872 12.6522C43.2839 12.6528 44.073 12.4965 44.8092 12.192C45.5455 11.8875 46.2146 11.4409 46.7783 10.8776C47.342 10.3144 47.7892 9.64555 48.0945 8.90935C48.3998 8.17315 48.557 7.38399 48.5574 6.58696C48.557 5.78993 48.3998 5.00078 48.0945 4.26457C47.7892 3.52837 47.342 2.85955 46.7783 2.29631C46.2146 1.73306 45.5455 1.28644 44.8092 0.981957C44.073 0.67747 43.2839 0.521084 42.4872 0.521731C41.6906 0.521246 40.9018 0.677752 40.1656 0.982311C39.4295 1.28687 38.7605 1.73352 38.197 2.29674C37.6334 2.85997 37.1863 3.52874 36.8811 4.26486C36.5759 5.00098 36.4187 5.79004 36.4183 6.58696C36.4187 7.38389 36.5759 8.17294 36.8811 8.90906C37.1863 9.64519 37.6334 10.314 38.197 10.8772C38.7605 11.4404 39.4295 11.8871 40.1656 12.1916C40.9018 12.4962 41.6906 12.6527 42.4872 12.6522ZM14.1629 12.6522C14.9595 12.6527 15.7484 12.4962 16.4845 12.1916C17.2206 11.8871 17.8896 11.4404 18.4531 10.8772C19.0167 10.314 19.4639 9.64519 19.769 8.90906C20.0742 8.17294 20.2315 7.38389 20.2318 6.58696C20.2315 5.79004 20.0742 5.00098 19.769 4.26486C19.4639 3.52874 19.0167 2.85997 18.4531 2.29674C17.8896 1.73352 17.2206 1.28687 16.4845 0.982311C15.7484 0.677752 14.9595 0.521246 14.1629 0.521731C13.3662 0.521084 12.5772 0.67747 11.8409 0.981957C11.1046 1.28644 10.4355 1.73306 9.87184 2.29631C9.30814 2.85955 8.86089 3.52837 8.55564 4.26457C8.25038 5.00078 8.0931 5.78993 8.09277 6.58696C8.0931 7.38399 8.25038 8.17315 8.55564 8.90935C8.86089 9.64555 9.30814 10.3144 9.87184 10.8776C10.4355 11.4409 11.1046 11.8875 11.8409 12.192C12.5772 12.4965 13.3662 12.6528 14.1629 12.6522ZM97.7383 2.00358C98.6734 2.00358 99.441 2.27065 100.041 2.80481C100.642 3.33896 100.942 4.0405 100.942 4.90942V34.8602C100.942 35.7623 100.659 36.4799 100.091 37.014C99.5247 37.5482 98.773 37.8153 97.8392 37.8153C96.9042 37.8153 96.1538 37.5482 95.5854 37.0153C95.0182 36.4799 94.734 35.7623 94.734 34.8614V33.6085C93.9996 34.9771 92.9317 36.0454 91.5292 36.8134C90.1612 37.5814 88.5926 37.9654 86.8235 37.9654C84.7197 37.9654 82.8349 37.4313 81.1667 36.363C79.5305 35.2947 78.2461 33.7919 77.3111 31.8547C76.4093 29.8854 75.959 27.6319 75.959 25.094C75.959 22.5562 76.4093 20.3359 77.3111 18.4319C78.2461 16.5291 79.5305 15.0596 81.1667 14.0245C82.8017 12.9894 84.6877 12.4713 86.8235 12.4713C88.5926 12.4713 90.1612 12.8393 91.5304 13.574C92.8647 14.2753 93.9617 15.3557 94.6836 16.6793V4.8085C94.6836 3.97404 94.9506 3.30573 95.4845 2.80481C96.0529 2.27065 96.8034 2.00358 97.7383 2.00358ZM88.4757 33.1076C90.4786 33.1076 92.0139 32.4233 93.0818 31.0534C94.1829 29.6848 94.734 27.7303 94.734 25.1937C94.734 22.6559 94.1829 20.7187 93.0818 19.3845C92.0139 18.0147 90.4958 17.3291 88.5261 17.3291C86.5233 17.3291 84.9707 17.9974 83.8696 19.334C82.7685 20.6694 82.2174 22.5894 82.2174 25.094C82.2174 27.6319 82.7685 29.6011 83.8696 31.0042C84.9707 32.4073 86.5061 33.1076 88.4757 33.1076ZM118.545 37.9654C116.042 37.9654 113.839 37.4485 111.937 36.4134C110.067 35.3783 108.615 33.8928 107.58 31.9556C106.546 30.0183 106.028 27.7648 106.028 25.1937C106.028 22.6227 106.545 20.3851 107.58 18.4823C108.615 16.5451 110.067 15.0596 111.936 14.0245C113.839 12.9894 116.042 12.4713 118.545 12.4713C121.048 12.4713 123.234 12.9882 125.103 14.0245C126.977 15.0296 128.497 16.5856 129.459 18.4823C130.494 20.3851 131.012 22.6227 131.012 25.1937C131.012 27.766 130.494 30.0183 129.459 31.9556C128.497 33.8524 126.977 35.4083 125.103 36.4134C123.234 37.4473 121.047 37.9654 118.545 37.9654ZM118.495 33.1076C120.531 33.1076 122.083 32.4393 123.151 31.1039C124.22 29.7685 124.754 27.798 124.754 25.1937C124.754 22.6227 124.22 20.6694 123.151 19.334C122.083 17.9642 120.547 17.2799 118.545 17.2799C116.543 17.2799 114.989 17.9642 113.889 19.334C112.821 20.6694 112.286 22.6227 112.286 25.1937C112.286 27.798 112.82 29.7685 113.889 31.1039C114.957 32.4393 116.492 33.1076 118.495 33.1076ZM156.905 12.5722C157.84 12.5722 158.591 12.8393 159.158 13.3722C159.726 13.9076 160.009 14.6251 160.009 15.526V35.3107C160.009 39.1507 158.941 42.0553 156.806 44.027C154.669 45.9962 151.516 46.9808 147.343 46.9808C143.705 46.9808 140.667 46.2977 138.231 44.9279C136.996 44.1931 136.378 43.3082 136.378 42.2731C136.378 41.5383 136.546 40.955 136.879 40.5205C137.246 40.086 137.713 39.8682 138.28 39.8682C138.582 39.8682 138.948 39.9359 139.383 40.07C139.816 40.2362 140.267 40.4208 140.734 40.6202C141.779 41.0652 142.849 41.4498 143.938 41.7722C144.907 42.0393 146.008 42.1734 147.243 42.1734C151.615 42.1734 153.801 40.0368 153.801 35.7611V32.5562C153.067 33.926 151.999 34.9931 150.598 35.7623C149.195 36.4971 147.594 36.8639 145.791 36.8639C143.654 36.8639 141.752 36.363 140.083 35.3623C138.448 34.326 137.163 32.891 136.228 31.0547C135.293 29.2171 134.826 27.0977 134.826 24.6928C134.826 22.2891 135.277 20.1685 136.178 18.3322C137.113 16.4614 138.415 15.0263 140.083 14.0245C141.752 12.9894 143.654 12.4713 145.791 12.4713C147.594 12.4713 149.195 12.8553 150.598 13.6233C151.963 14.3226 153.081 15.424 153.801 16.779V15.4768C153.801 14.6091 154.086 13.9076 154.653 13.3722C155.22 12.8393 155.972 12.5722 156.905 12.5722ZM147.443 32.006C149.446 32.006 150.998 31.3537 152.099 30.0528C153.234 28.7494 153.801 26.9636 153.801 24.6928C153.801 22.3888 153.234 20.5857 152.099 19.2836C150.998 17.9814 149.446 17.3303 147.443 17.3303C145.474 17.3303 143.921 17.9814 142.787 19.2836C141.653 20.5857 141.084 22.3888 141.084 24.6928C141.084 26.9636 141.653 28.7494 142.787 30.0528C143.921 31.355 145.474 32.006 147.443 32.006ZM175.353 37.9654C171.715 37.9654 168.779 37.2479 166.542 35.8116C165.474 35.1777 164.94 34.2756 164.94 33.1076C164.94 32.4393 165.124 31.9051 165.49 31.5051C165.858 31.0707 166.308 30.8528 166.842 30.8528C167.409 30.8528 168.194 31.1211 169.196 31.6553C170.264 32.1562 171.232 32.5402 172.099 32.8073C173.001 33.0743 174.135 33.2073 175.503 33.2073C176.906 33.2073 177.991 32.9734 178.759 32.5057C179.559 32.038 179.959 31.3882 179.959 30.5525C179.959 29.9863 179.793 29.5347 179.459 29.2011C179.158 28.8663 178.591 28.566 177.757 28.299C176.955 27.9987 175.721 27.6651 174.052 27.2971C171.082 26.6965 168.945 25.8448 167.643 24.7433C166.375 23.6417 165.741 22.1217 165.741 20.1857C165.741 18.7162 166.174 17.3968 167.043 16.2276C167.91 15.0263 169.095 14.1082 170.597 13.4731C172.132 12.806 173.868 12.4713 175.803 12.4713C177.206 12.4713 178.558 12.6559 179.86 13.0227C181.101 13.3306 182.285 13.8377 183.365 14.5242C184.433 15.1925 184.966 16.0774 184.966 17.1802C184.966 17.8473 184.783 18.4159 184.415 18.8823C184.049 19.3168 183.597 19.5347 183.063 19.5347C182.697 19.5347 182.329 19.467 181.962 19.334C181.523 19.1103 181.089 18.8764 180.661 18.6325C179.692 18.1316 178.858 17.7648 178.157 17.531C177.456 17.2639 176.588 17.1297 175.554 17.1297C174.319 17.1297 173.334 17.3808 172.6 17.8805C171.899 18.3814 171.548 19.067 171.548 19.9347C171.548 20.7691 171.916 21.4042 172.65 21.8374C173.385 22.2719 174.803 22.7063 176.906 23.1408C179.142 23.6085 180.894 24.1414 182.163 24.7433C183.431 25.3439 184.332 26.0959 184.866 26.9968C185.434 27.899 185.717 29.051 185.717 30.4528C185.717 32.7236 184.766 34.5439 182.864 35.9125C180.994 37.2811 178.49 37.9654 175.353 37.9654Z" fill="#9C9C9C"/>
</svg>
