<svg width="202" height="47" viewBox="0 0 202 47" fill="none" xmlns="http://www.w3.org/2000/svg">
<g clip-path="url(#clip0_158_19)">
<path d="M3.31083 35.1943C2.31068 35.1943 1.50022 34.8826 0.879439 34.2593C0.293146 33.6359 0 32.822 0 31.8177V1.42853C0 0.424211 0.275902 -0.355 0.827707 -0.909105C1.414 -1.46321 2.20722 -1.74026 3.20737 -1.74026H21.3652C23.469 -1.74026 24.5208 -0.839842 24.5208 0.961C24.5208 2.72721 23.469 3.61032 21.3652 3.61032H6.56993V13.5842H20.3306C22.4343 13.5842 23.4862 14.4846 23.4862 16.2855C23.4862 18.0517 22.4343 18.9348 20.3306 18.9348H6.56993V31.8177C6.56993 32.822 6.27678 33.6359 5.69049 34.2593C5.1042 34.8826 4.31098 35.1943 3.31083 35.1943ZM34.0111 35.1943C33.08 35.1943 32.304 34.9346 31.6832 34.4151C31.0969 33.861 30.8038 33.0818 30.8038 32.0775V1.06489C30.8038 0.0605788 31.0969 -0.701316 31.6832 -1.22079C32.304 -1.74026 33.08 -2 34.0111 -2C34.9423 -2 35.7183 -1.74026 36.3391 -1.22079C36.9598 -0.701316 37.2702 0.0605788 37.2702 1.06489V32.0775C37.2702 33.0818 36.9598 33.861 36.3391 34.4151C35.7183 34.9346 34.9423 35.1943 34.0111 35.1943ZM63.9589 27.9217C64.5452 27.9217 65.0107 28.1468 65.3556 28.597C65.735 29.0472 65.9247 29.6533 65.9247 30.4152C65.9247 31.4887 65.2867 32.3892 64.0106 33.1164C62.838 33.7744 61.5102 34.3112 60.0273 34.7268C58.5443 35.1077 57.1303 35.2982 55.7853 35.2982C51.7157 35.2982 48.4911 34.1207 46.1114 31.7658C43.7318 29.4108 42.5419 26.1901 42.5419 22.1036C42.5419 19.5062 43.0593 17.2032 44.0939 15.1946C45.1285 13.1859 46.577 11.6275 48.4394 10.5193C50.3362 9.4111 52.4744 8.857 54.8541 8.857C57.1303 8.857 59.1133 9.35916 60.8032 10.3635C62.4931 11.3678 63.8037 12.7877 64.7348 14.6232C65.666 16.4586 66.1316 18.6231 66.1316 21.1166C66.1316 22.6057 65.4763 23.3503 64.1658 23.3503H48.9049C49.1119 25.7399 49.7844 27.5061 50.9225 28.6489C52.0606 29.7572 53.716 30.3113 55.8887 30.3113C56.9923 30.3113 57.958 30.1727 58.7857 29.8957C59.6479 29.6186 60.6135 29.2377 61.6827 28.7528C62.7173 28.1987 63.476 27.9217 63.9589 27.9217ZM55.008 13.4284C53.2492 13.4284 51.8352 13.9825 50.766 15.0907C49.7314 16.1989 49.1106 17.7919 48.9037 19.8698H60.5951C60.5261 17.7573 60.0088 16.1643 59.0431 15.0907C58.0775 13.9825 56.7324 13.4284 55.008 13.4284ZM92.8498 30.1035C93.4706 30.7268 93.781 31.4368 93.781 32.2333C93.781 32.9952 93.4878 33.6878 92.9015 34.3112C92.3152 34.8999 91.6255 35.1943 90.8323 35.1943C89.9701 35.1943 89.2286 34.8307 88.6078 34.1034L81.3136 25.9996L74.0195 34.1034C73.3642 34.7961 72.6227 35.1424 71.795 35.1424C71.0363 35.1424 70.3637 34.848 69.7775 34.2593C69.1912 33.6705 68.898 32.9952 68.898 32.2333C68.898 31.4368 69.2084 30.7268 69.8292 30.1035L77.382 21.8438L70.243 14.0517C69.6223 13.4284 69.3119 12.7184 69.3119 11.9219C69.3119 11.1254 69.605 10.4501 70.1913 9.89595C70.7776 9.30721 71.4501 9.01284 72.2088 9.01284C73.0366 9.01284 73.778 9.35916 74.4333 10.0518L81.3136 17.6361L88.1939 10.0518C88.8492 9.35916 89.5907 9.01284 90.4184 9.01284C91.2116 9.01284 91.8841 9.30721 92.4359 9.89595C93.0222 10.4501 93.3154 11.1254 93.3154 11.9219C93.3154 12.7184 93.005 13.4284 92.3842 14.0517L85.2452 21.8438L92.8498 30.1035ZM121.47 15.9738C123.574 16.5625 125.194 17.6361 126.333 19.1945C127.505 20.7529 128.091 22.6577 128.091 24.9087C128.091 28.0256 126.971 30.4671 124.729 32.2333C122.522 33.9995 119.469 34.8826 115.572 34.8826H102.226C101.225 34.8826 100.432 34.6056 99.8459 34.0515C99.2941 33.4974 99.0182 32.7182 99.0182 31.7138V1.42853C99.0182 0.424211 99.2941 -0.355 99.8459 -0.909105C100.432 -1.46321 101.225 -1.74026 102.226 -1.74026H115.054C118.847 -1.74026 121.813 -0.89179 123.952 0.805158C126.124 2.46747 127.211 4.80511 127.211 7.81805C127.211 9.75742 126.693 11.4371 125.659 12.8569C124.659 14.2768 123.262 15.3158 121.469 15.9738H121.47ZM105.536 13.6881H113.969C118.556 13.6881 120.849 11.9738 120.849 8.54531C120.849 6.81374 120.28 5.53237 119.142 4.70121C118.004 3.87005 116.279 3.45447 113.969 3.45447H105.536V13.6881ZM114.848 29.6879C117.262 29.6879 119.021 29.255 120.125 28.3892C121.228 27.5234 121.78 26.1728 121.78 24.3373C121.78 22.5018 121.211 21.1339 120.073 20.2335C118.969 19.3331 117.228 18.8828 114.848 18.8828H105.536V29.6879H114.848ZM136.97 35.1943C136.038 35.1943 135.262 34.9346 134.642 34.4151C134.055 33.861 133.762 33.0818 133.762 32.0775V1.06489C133.762 0.0605788 134.055 -0.701316 134.642 -1.22079C135.262 -1.74026 136.038 -2 136.97 -2C137.901 -2 138.677 -1.74026 139.297 -1.22079C139.918 -0.701316 140.229 0.0605788 140.229 1.06489V32.0775C140.229 33.0818 139.918 33.861 139.297 34.4151C138.677 34.9346 137.901 35.1943 136.97 35.1943ZM158.433 35.2982C155.847 35.2982 153.57 34.7614 151.605 33.6878C149.673 32.6143 148.173 31.0732 147.104 29.0645C146.035 27.0559 145.5 24.7183 145.5 22.0516C145.5 19.385 146.035 17.0647 147.104 15.0907C148.173 13.0821 149.673 11.5409 151.605 10.4674C153.57 9.39379 155.847 8.857 158.433 8.857C161.02 8.857 163.279 9.39379 165.21 10.4674C167.146 11.5101 168.717 13.1237 169.711 15.0907C170.78 17.0647 171.314 19.385 171.314 22.0516C171.314 24.7183 170.78 27.0559 169.711 29.0645C168.717 31.0315 167.146 32.6452 165.21 33.6878C163.279 34.7614 161.02 35.2982 158.433 35.2982ZM158.382 30.2593C160.485 30.2593 162.089 29.5667 163.193 28.1814C164.296 26.7962 164.848 24.7529 164.848 22.0516C164.848 19.385 164.296 17.3591 163.193 15.9738C162.089 14.5539 160.503 13.8439 158.433 13.8439C156.364 13.8439 154.76 14.5539 153.622 15.9738C152.519 17.3591 151.967 19.385 151.967 22.0516C151.967 24.7529 152.519 26.7962 153.622 28.1814C154.726 29.5667 156.312 30.2593 158.382 30.2593ZM198.07 8.96089C199.035 8.96089 199.811 9.23795 200.398 9.79205C200.984 10.3462 201.277 11.0907 201.277 12.0258V32.545C201.277 36.5276 200.173 39.5406 197.966 41.5838C195.759 43.6271 192.5 44.6487 188.189 44.6487C184.43 44.6487 181.291 43.9388 178.774 42.5189C177.498 41.757 176.86 40.8393 176.86 39.7657C176.86 39.0038 177.032 38.3977 177.377 37.9475C177.756 37.4973 178.239 37.2722 178.825 37.2722C179.136 37.2722 179.515 37.3415 179.964 37.48C180.412 37.6532 180.877 37.8436 181.36 38.0514C182.602 38.5709 183.705 38.9692 184.671 39.2462C185.671 39.5233 186.809 39.6618 188.085 39.6618C192.603 39.6618 194.862 37.4454 194.862 33.0125V29.6879C194.104 31.1078 193 32.216 191.551 33.0125C190.103 33.7744 188.448 34.1554 186.585 34.1554C184.378 34.1554 182.412 33.6359 180.688 32.5969C178.998 31.5234 177.67 30.0342 176.704 28.1295C175.739 26.2247 175.256 24.0256 175.256 21.5322C175.256 19.0387 175.722 16.8396 176.653 14.9348C177.618 12.9955 178.963 11.5063 180.688 10.4674C182.412 9.39379 184.378 8.857 186.585 8.857C188.448 8.857 190.103 9.25526 191.551 10.0518C192.963 10.7768 194.118 11.9191 194.862 13.3245V11.9738C194.862 11.0734 195.155 10.3462 195.742 9.79205C196.328 9.23795 197.104 8.96089 198.07 8.96089ZM188.292 29.1165C190.362 29.1165 191.965 28.4412 193.103 27.0905C194.276 25.7399 194.862 23.8871 194.862 21.5322C194.862 19.1426 194.276 17.2725 193.103 15.9218C191.965 14.5712 190.362 13.8959 188.292 13.8959C186.258 13.8959 184.654 14.5712 183.481 15.9218C182.309 17.2725 181.722 19.1426 181.722 21.5322C181.722 23.8871 182.309 25.7399 183.481 27.0905C184.654 28.4412 186.258 29.1165 188.292 29.1165Z" fill="#9C9C9C"/>
</g>
<defs>
<clipPath id="clip0_158_19">
<rect width="202" height="47" fill="white"/>
</clipPath>
</defs>
</svg>
