<svg width="171" height="61" viewBox="0 0 171 61" fill="none" xmlns="http://www.w3.org/2000/svg">
<g clip-path="url(#clip0_158_21)">
<path d="M30.6471 13.1565L24.9857 47.68H16.8515L18.9183 35.2141H10.1567L8.13173 47.68H0L5.70697 13.1565H13.7956L11.3697 27.733H20.1313L22.5597 13.1565H30.6471ZM47.3301 47.68L47.6007 40.1526H40.0964L37.8943 47.68H29.3111L40.8604 13.1565H55.6882L55.869 47.68H47.3301ZM45.4885 21.5476L41.9393 33.7269H47.8259L48.3192 21.5489L45.4885 21.5476ZM90.769 13.1565L85.1063 47.68H76.9721L71.3119 28.7896L68.2561 47.6813H60.1206L65.8276 13.1565H74.1857L79.7586 30.8026L82.6779 13.1565H90.769ZM109.745 13.1565C113.669 13.1565 116.471 14.2118 118.147 16.3212C119.376 17.9194 119.989 19.9177 119.989 22.315C119.989 23.1788 119.915 24.0889 119.766 25.0478L118.013 35.7411C117.414 39.3523 115.945 42.2462 113.609 44.4202C111.272 46.5942 108.247 47.68 104.53 47.68H91.4542L97.1624 13.1565H109.745ZM106.913 20.6375H103.993L100.803 40.199H105.071C106.479 40.199 107.573 39.7988 108.351 39.001C109.161 38.1689 109.714 36.8269 110.012 34.9737L111.317 27.1096C111.43 26.4752 111.491 25.8335 111.497 25.1906C111.497 22.1528 109.97 20.6375 106.913 20.6375ZM144.073 47.68H121.515L127.224 13.1565H149.782L148.524 20.6375H134.054L133.021 27.1108H144.974L143.716 34.5894H131.762L130.864 40.2002H145.334L144.073 47.68ZM169.741 47.68H149.25L154.958 13.1565H163.047L158.598 40.2002H171L169.741 47.68ZM90.3852 53.824H168.557L166.115 61H87.9432L90.3852 53.824ZM8.55 0H94.05L91.6068 7.17604H6.10679L8.55 0Z" fill="#9C9C9C"/>
</g>
<defs>
<clipPath id="clip0_158_21">
<rect width="171" height="61" fill="white"/>
</clipPath>
</defs>
</svg>
