<svg width="277" height="50" viewBox="0 0 277 50" fill="none" xmlns="http://www.w3.org/2000/svg">
<g clip-path="url(#clip0_158_23)">
<mask id="mask0_158_23" style="mask-type:luminance" maskUnits="userSpaceOnUse" x="0" y="6" width="277" height="50">
<path d="M0 6H277V56H0V6Z" fill="white"/>
</mask>
<g mask="url(#mask0_158_23)">
<path fill-rule="evenodd" clip-rule="evenodd" d="M18.5577 44.0523C18.3807 44.0508 18.2065 44.0122 18.0484 43.9395C17.8903 43.8668 17.7524 43.7619 17.6454 43.6328C17.3416 43.263 17.1364 42.8333 17.0462 42.3779C16.9018 41.7983 16.7906 41.2121 16.7132 40.6218C16.6212 39.8617 16.5741 39.0976 16.5721 38.3328C16.5447 36.6524 16.5509 34.9716 16.5907 33.2913C16.6147 32.2596 16.6253 31.4548 16.6253 30.8743V11.6645C16.6253 10.7182 16.632 9.99866 16.644 9.50476C16.656 9.01086 16.6972 8.45232 16.7652 7.82915C16.8051 7.36574 16.893 6.9072 17.0302 6.45964C17.1634 6.11452 17.3405 5.78525 17.5562 5.47671C17.756 5.15354 18.0463 4.88647 18.3992 4.70354C18.8094 4.51574 19.2315 4.34988 19.663 4.20354C20.219 4.01429 20.7953 3.87939 21.3823 3.8011C22.1471 3.69885 22.9144 3.61265 23.6835 3.54257V1.76817L23.0842 1.21939H1.88041L1.31842 1.76817V3.28281C4.8768 3.47671 6.86641 4.4011 7.28724 6.05476C7.53228 7.4511 7.64947 8.8633 7.63881 10.2767V39.6999C7.69768 41.2282 7.62689 42.7584 7.42707 44.2767C7.32985 44.5133 7.18736 44.7304 7.00624 44.9206C6.73506 45.2176 6.4484 45.5025 6.14728 45.7743C5.90869 45.9854 5.6803 46.2059 5.46277 46.4352V47.5633C23.557 47.5633 34.7568 47.6706 39.0623 47.8865L40.5738 43.2133L39.6257 42.5999C32.6341 43.406 25.6025 43.8901 18.559 44.0511L18.5577 44.0523ZM52.1919 30.5816C52.1232 30.5992 52.0527 30.6098 51.9815 30.6133C51.6312 30.6133 51.4554 30.4962 51.4554 30.2596C51.4567 29.1913 51.5446 28.1243 51.7191 27.0682C51.9162 25.917 52.2451 24.7877 52.7019 23.7011C53.1421 22.5994 53.7457 21.5583 54.4958 20.6072C55.2907 19.6396 56.323 18.8569 57.5093 18.3222C58.6957 17.7875 60.0027 17.5158 61.3249 17.5292C62.279 17.4807 63.2305 17.6602 64.086 18.0502C64.9414 18.4402 65.6714 19.0272 66.2043 19.7535C67.3112 21.2558 67.8876 23.033 67.8557 24.845C67.851 25.1772 67.7358 25.5001 67.5254 25.7707C67.3151 26.0413 67.0196 26.2468 66.6784 26.3596C64.7558 27.0691 62.7926 27.6826 60.7975 28.1974C57.9915 28.9536 55.1947 29.7382 52.4076 30.5511C52.3347 30.5539 52.2623 30.5641 52.1919 30.5816ZM73.0468 40.6365C68.8318 42.9779 65.1922 44.1487 62.1292 44.1487C60.0542 44.1899 58.0167 43.6379 56.3003 42.5694C54.7035 41.5882 53.4338 40.2221 52.6313 38.6218C51.8412 37.0171 51.44 35.2747 51.4554 33.5145C66.7637 29.1535 74.4877 26.9718 74.6275 26.9718C75.2355 26.8579 75.7787 26.5482 76.1586 26.099C76.5386 25.6497 76.7301 25.0906 76.6984 24.5231C76.74 22.941 76.335 21.3758 75.5225 19.9791C74.7805 18.7299 73.6823 17.6885 72.3449 16.9657C70.9957 16.2405 69.5335 15.708 68.0088 15.3865C66.3551 15.0436 64.6638 14.8758 62.9682 14.8865C59.9265 14.8433 56.9101 15.3985 54.1229 16.5145C51.6653 17.4866 49.494 18.9777 47.7865 20.8657C46.1767 22.6914 44.9344 24.7648 44.1176 26.9889C43.2706 29.2775 42.8431 31.6786 42.8524 34.095C42.8524 39.0584 44.3173 42.7755 47.2418 45.2462C49.8866 47.5023 53.6208 48.6292 58.4417 48.6292C61.2058 48.6032 63.9266 47.997 66.3948 46.8572C69.3671 45.5015 72.2143 43.9273 74.9085 42.1499L74.1401 40.8962L73.0468 40.6365ZM120.335 6.65476C119.394 4.4045 117.547 2.5704 115.173 1.53037C112.233 0.397624 109.057 -0.130247 105.87 -0.0159715C103.544 -0.0281896 101.226 0.231635 98.9716 0.757199C96.8747 1.24611 94.873 2.02893 93.0374 3.07793C91.2394 4.11591 89.7689 5.5663 88.7718 7.28525C87.6895 9.16545 87.1457 11.2663 87.1911 13.3913C87.1899 14.9125 87.5935 16.411 88.367 17.7572C89.1058 19.0895 90.1057 20.2862 91.3168 21.2877C92.6192 22.3397 94.0034 23.3036 95.4585 24.1718C96.9189 25.0629 98.4314 25.8804 99.989 26.6206C101.453 27.3099 102.894 28.0411 104.308 28.8133C105.48 29.4206 106.58 30.1389 107.591 30.956C110.187 33.1694 111.487 35.2743 111.487 37.2731C111.482 38.3348 111.24 39.3843 110.775 40.3569C110.31 41.3295 109.632 42.2045 108.784 42.9279C107.941 43.722 106.931 44.3503 105.814 44.7743C104.697 45.1983 103.498 45.4091 102.289 45.3938C100.875 45.431 99.4714 45.1715 98.1843 44.6352C96.8973 44.0989 95.7612 43.3001 94.8632 42.2999C92.9997 40.3458 91.9821 37.8344 92.0026 35.2401L90.6349 34.7889L83.6487 41.9755C85.2453 44.0915 87.4101 45.7954 89.9344 46.9231C92.5012 48.0762 95.3256 48.6669 98.1845 48.6487C100.793 48.6367 103.385 48.2667 105.874 47.5511C108.377 46.8611 110.764 45.8577 112.967 44.5694C115.061 43.3447 116.84 41.7177 118.179 39.8011C119.492 37.9787 120.194 35.8442 120.198 33.6609C120.209 32.4892 119.983 31.3258 119.532 30.2292C119.115 29.2108 118.535 28.2548 117.812 27.3926C116.959 26.4353 115.974 25.5849 114.879 24.8633C113.683 24.0375 112.435 23.278 111.14 22.5889C109.59 21.7802 108.021 21.0012 106.436 20.2523C105.33 19.7616 104.241 19.2402 103.171 18.6889C102.158 18.1469 101.172 17.5634 100.217 16.9401C99.2372 16.3252 98.3421 15.6046 97.5506 14.7938C96.8551 14.0371 96.2868 13.1895 95.8646 12.2792C95.396 11.2989 95.1569 10.2395 95.1628 9.16939C95.1412 8.29421 95.3116 7.42395 95.6639 6.61015C96.0162 5.79635 96.5432 5.05554 97.2137 4.43159C97.9223 3.78299 98.7704 3.27627 99.7041 2.94353C100.638 2.6108 101.637 2.45931 102.638 2.49866C103.878 2.44963 105.114 2.65238 106.258 3.0924C107.403 3.53242 108.427 4.1988 109.257 5.04379C110.92 6.76733 111.967 8.91547 112.258 11.1999L113.487 11.5535L120.335 6.65476ZM154.478 19.0145C153.851 18.0086 152.942 17.1743 151.845 16.5974C150.76 16.0294 149.588 15.6115 148.369 15.3572C147.061 15.0915 145.725 14.9619 144.385 14.9706C141.829 14.9377 139.288 15.3365 136.889 16.1474C134.83 16.832 132.944 17.8897 131.342 19.2572C129.853 20.5778 128.619 22.1189 127.69 23.8157C126.736 25.5227 126.033 27.3382 125.601 29.2145C125.174 31.1123 124.963 33.0453 124.97 34.9828C124.962 36.6292 125.216 38.2682 125.723 39.8462C126.216 41.3743 126.982 42.817 127.987 44.117C129.048 45.4578 130.47 46.5239 132.114 47.2109C134.003 48.0011 136.06 48.3926 138.135 48.3548C144.713 48.3548 150.892 45.7011 156.673 40.395L155.971 39.4596L155.093 39.267C150.811 42.2962 146.854 43.8109 143.226 43.8109C141.868 43.8309 140.525 43.5488 139.312 42.9889C138.213 42.489 137.256 41.7612 136.517 40.8633C135.784 39.9403 135.187 38.9323 134.743 37.8657C134.282 36.8007 133.947 35.6936 133.743 34.5633C133.557 33.4974 133.463 32.4194 133.462 31.3401C133.47 29.9682 133.599 28.5999 133.848 27.2474C134.124 25.7413 134.535 24.2596 135.077 22.8157C135.57 21.4046 136.425 20.1224 137.57 19.0767C138.075 18.6088 138.676 18.238 139.34 17.9862C140.003 17.7345 140.715 17.6068 141.432 17.6109C142.392 17.5624 143.347 17.76 144.19 18.1814C145.034 18.6028 145.732 19.2313 146.207 19.9962C147.292 21.7873 147.826 23.8148 147.752 25.8621L148.981 26.3133L155.617 22.7048C155.562 21.4094 155.172 20.1445 154.478 19.0145ZM167.347 28.6023C167.525 27.3365 167.837 26.0901 168.278 24.8804C168.681 23.7035 169.254 22.5828 169.979 21.545C170.677 20.5836 171.609 19.7838 172.702 19.2084C173.88 18.5855 175.221 18.2681 176.581 18.2901C178.056 18.2557 179.511 18.6077 180.776 19.3048C181.951 19.9747 182.894 20.9358 183.497 22.0767C184.132 23.256 184.591 24.5072 184.864 25.7987C185.153 27.1889 185.296 28.6035 185.286 30.0206C185.286 31.3096 185.274 32.384 185.25 33.2426C185.213 34.2768 185.131 35.3093 185.005 36.3377C184.901 37.3499 184.708 38.3511 184.426 39.334C184.15 40.1999 183.792 41.0413 183.355 41.8487C182.953 42.6478 182.373 43.3611 181.652 43.9426C180.907 44.4992 180.064 44.9352 179.159 45.2316C178.062 45.5912 176.902 45.766 175.737 45.7474C174.453 45.7618 173.196 45.4125 172.137 44.7474C171.104 44.1139 170.246 43.2704 169.628 42.2828C168.979 41.2198 168.472 40.0894 168.118 38.9157C167.745 37.7608 167.474 36.5801 167.309 35.3853C167.173 34.3533 167.103 33.3149 167.099 32.2755C167.098 31.0476 167.181 29.8208 167.347 28.6023ZM162.993 45.2645C165.543 47.3913 169.593 48.4548 175.141 48.4548C177.192 48.467 179.238 48.2511 181.233 47.8096C183.109 47.3824 184.898 46.6807 186.53 45.7316C188.171 44.7836 189.606 43.565 190.761 42.1377C192.025 40.5192 192.964 38.7076 193.535 36.7877C194.243 34.4594 194.586 32.0507 194.554 29.634C194.622 27.6882 194.227 25.7521 193.396 23.9601C192.566 22.168 191.319 20.5629 189.744 19.256C186.817 16.8511 182.568 15.6474 176.999 15.6474C171.428 15.6474 166.841 17.2267 163.236 20.3852C161.466 21.917 160.069 23.774 159.137 25.8344C158.206 27.8948 157.76 30.1122 157.829 32.3413C157.829 38.0999 159.548 42.4072 162.989 45.2645H162.993ZM217.938 19.7401C219.81 19.7401 221.145 20.084 221.941 20.7718C222.683 21.6011 223.151 22.6084 223.291 23.6743C223.586 24.9304 223.768 26.2084 223.836 27.4926C223.883 28.6206 223.907 30.0767 223.907 31.8596C223.905 34.1748 223.887 36.4898 223.855 38.8048C223.843 39.5023 223.848 40.3243 223.871 41.2706C223.877 41.9755 223.924 42.6804 224.012 43.3804C224.082 43.8438 224.176 44.3487 224.293 44.895C224.374 45.3535 224.54 45.7938 224.784 46.1999C224.995 46.5231 225.253 46.817 225.554 47.0718C226.607 47.9471 227.993 48.4094 229.415 48.3596C231.171 48.3596 233.183 47.5426 235.454 45.9109C237.349 44.4677 239.154 42.9287 240.861 41.3011L240.054 40.2035H239.211C237.838 41.2123 236.159 41.809 234.402 41.9121C234.03 41.9316 233.657 41.8817 233.307 41.7653C232.957 41.649 232.636 41.4686 232.364 41.2352C232.122 41.0598 231.914 40.8478 231.749 40.6084C231.556 40.1868 231.432 39.7413 231.382 39.2865C231.247 38.3625 231.188 37.4306 231.206 36.4987C231.206 35.7901 231.247 34.645 231.328 33.067C231.394 31.945 231.435 30.8221 231.452 29.6987V27.7645C231.475 25.6804 231.469 24.2365 231.435 23.4291C231.365 22.3278 231.229 21.2306 231.03 20.1426C230.943 19.1167 230.568 18.1288 229.942 17.2743C229.323 16.6603 228.585 16.1578 227.765 15.7926C226.65 15.2988 225.421 15.0606 224.184 15.0987C220.064 15.0987 215.289 16.6462 209.859 19.7401L209.016 19.4499C208.971 18.2649 208.551 17.1175 207.806 16.1474C207.115 15.3182 205.927 14.906 204.242 14.906C203.232 14.9176 202.231 15.0753 201.275 15.3731C200.163 15.7145 199.102 16.1804 198.114 16.7584C197.048 17.3718 196.124 17.9413 195.34 18.467C194.555 18.9926 193.648 19.6316 192.619 20.384L193.917 21.9633C194.156 21.8219 194.396 21.6824 194.638 21.545C195.047 21.3084 195.404 21.1157 195.708 20.9645C196.012 20.8145 196.376 20.6377 196.796 20.4328C197.173 20.245 197.568 20.0877 197.974 19.9621C198.284 19.8645 198.609 19.8096 198.938 19.8011C199.344 19.7926 199.745 19.8865 200.097 20.0755C200.453 20.2913 200.722 20.6084 200.866 20.9779C201.042 21.3682 201.194 21.7645 201.322 22.1694C201.466 22.7145 201.548 23.2706 201.568 23.8304C201.616 24.5621 201.644 25.1523 201.653 25.6023C201.664 26.0523 201.669 26.7292 201.671 27.6328V28.1816C201.671 30.2865 201.495 36.7316 201.145 47.517L202.022 47.9682L209.922 45.8731C209.688 44.9499 209.512 42.0389 209.395 37.1413C209.279 32.3506 209.222 27.5589 209.224 22.767C213.297 20.7474 216.199 19.7377 217.931 19.7377L217.938 19.7401ZM251.994 30.7279C251.926 30.7466 251.855 30.7581 251.784 30.7621C251.433 30.7621 251.258 30.6438 251.256 30.4084C251.258 29.3389 251.346 28.2731 251.521 27.217C251.718 26.0657 252.047 24.9365 252.503 23.8487C252.944 22.7474 253.546 21.706 254.294 20.7548C255.089 19.7869 256.121 19.0039 257.307 18.4692C258.494 17.9345 259.801 17.663 261.123 17.6767C262.077 17.6281 263.029 17.8076 263.884 18.1976C264.74 18.5876 265.47 19.1747 266.003 19.9011C267.11 21.4032 267.686 23.1806 267.653 24.9926C267.647 25.3244 267.532 25.647 267.322 25.9176C267.112 26.1881 266.817 26.3937 266.477 26.5072C264.554 27.2163 262.592 27.8298 260.597 28.345C257.791 29.101 254.993 29.8856 252.206 30.6987C252.135 30.7022 252.064 30.7124 251.995 30.7292L251.994 30.7279ZM272.849 40.784C268.634 43.1267 264.994 44.2974 261.93 44.2962C259.855 44.3372 257.818 43.7857 256.101 42.7182C254.505 41.7366 253.236 40.3706 252.434 38.7706C251.643 37.1652 251.241 35.422 251.256 33.6609C266.565 29.3011 274.289 27.1206 274.43 27.1206C275.038 27.0062 275.581 26.6962 275.961 26.2468C276.341 25.7974 276.532 25.2382 276.501 24.6706C276.542 23.0886 276.137 21.5234 275.325 20.1267C274.583 18.8775 273.485 17.836 272.147 17.1133C270.798 16.3883 269.336 15.8558 267.811 15.534C266.157 15.191 264.465 15.0233 262.769 15.034C259.728 14.9911 256.713 15.5463 253.926 16.6621C251.469 17.6341 249.297 19.1252 247.59 21.0133C245.98 22.8387 244.737 24.9121 243.921 27.1365C243.074 29.4249 242.647 31.8262 242.657 34.2426C242.657 39.206 244.12 42.9218 247.045 45.3938C249.69 47.6499 253.423 48.7767 258.245 48.7767C261.009 48.7507 263.73 48.1445 266.198 47.0048C269.17 45.6489 272.017 44.075 274.712 42.2987L273.944 41.0438L272.849 40.784Z" fill="#9C9C9C"/>
</g>
</g>
<defs>
<clipPath id="clip0_158_23">
<rect width="277" height="50" fill="white"/>
</clipPath>
</defs>
</svg>
