<svg width="197" height="44" viewBox="0 0 197 44" fill="none" xmlns="http://www.w3.org/2000/svg">
<g clip-path="url(#clip0_158_7)">
<path d="M64.7225 43.4133V0H52.7747L27.793 33.4987L23.5761 28.6293C31.1154 27.5733 35.3322 21.472 35.3322 14.96C35.3322 8.74133 31.6265 3.52 26.6429 1.52533C24.1511 0.528 20.4454 0 15.5257 0H0V43.4133H11.5644V29.392H11.6922L22.6177 43.4133H34.8211L38.9741 37.136H52.6469V43.4133H64.7225ZM11.5644 21.824V9.73867H16.1646C20.701 9.73867 23.7678 11.8507 23.7678 15.6053C23.7678 19.5947 20.8926 21.824 16.1008 21.824H11.5644ZM52.6469 28.336H44.7243L52.5191 16.3093H52.6469V28.336ZM113.182 43.4133V0H101.617L102.129 27.456L83.7277 0H73.3133V43.4133H84.8777L84.5583 16.896L102.704 43.4133H113.182ZM148.053 43.4133V33.6747H133.358V26.224H147.606V16.4853H133.358V9.73867H148.053V0H121.794V43.4133H148.053ZM196.055 43.4133L179.379 21.648L195.033 0H182.382L169.029 19.536H168.901V0H156.825V43.4133H168.901V24.64H169.029L181.935 43.4133H196.055Z" fill="#9C9C9C"/>
</g>
<defs>
<clipPath id="clip0_158_7">
<rect width="197" height="44" fill="white"/>
</clipPath>
</defs>
</svg>
