<svg width="266" height="60" viewBox="0 0 266 60" fill="none" xmlns="http://www.w3.org/2000/svg">
<g clip-path="url(#clip0_158_9)">
<path d="M72.3268 53.8948C67.9112 53.8948 64.5263 53.1993 62.1709 51.8083C59.8567 50.3781 58.7009 48.2903 58.7009 45.5462C58.7009 44.1552 59.2063 43.014 60.2145 42.125C61.2665 41.1981 62.6125 40.734 64.2523 40.734C65.2193 40.7732 65.9547 41.0034 66.4601 41.4295C66.9655 41.8164 67.2182 42.1838 67.2182 42.5315C67.2182 42.5695 67.0068 42.7054 66.5865 42.9368C66.1662 43.1695 65.7885 43.5172 65.4507 43.9801C65.1142 44.4454 64.9453 45.0821 64.9453 45.894C64.9453 47.7111 65.5358 49.1217 66.7128 50.127C67.9325 51.0932 69.8038 51.5756 72.3268 51.5756C74.0518 51.5756 75.5653 51.267 76.8701 50.6487C78.1735 50.0303 79.1616 49.2185 79.8346 48.2132C80.5488 47.1699 80.9066 46.0874 80.9066 44.9658C80.9066 43.5748 80.465 42.3772 79.5819 41.3719C78.7241 40.3536 77.6515 39.5056 76.4285 38.8789C75.165 38.1834 73.4413 37.3899 71.2548 36.5009C68.7318 35.4577 66.6929 34.5111 65.1368 33.6601C63.5731 32.8043 62.2191 31.6594 61.1601 30.2977C60.0682 28.8674 59.5215 27.1091 59.5215 25.0213C59.5215 21.6589 60.7611 19.1462 63.2429 17.4846C65.7672 15.8217 69.0683 14.9915 73.1474 14.9915C76.3434 14.9915 79.1191 15.6099 81.4745 16.8466C83.8725 18.0834 85.0708 19.9005 85.0708 22.2956C85.0708 23.6879 84.5442 24.8474 83.4935 25.7756C82.484 26.6646 81.1593 27.1091 79.5194 27.1091C78.5512 27.0699 77.8157 26.8568 77.3116 26.4711C76.8062 26.0462 76.5535 25.6593 76.5535 25.3115C76.5535 25.2723 76.8275 25.1377 77.3741 24.905C77.9633 24.6736 78.4674 24.3258 78.8877 23.8617C79.3505 23.3977 79.5819 22.7597 79.5819 21.9491C79.5819 20.5189 78.9728 19.3972 77.7532 18.5854C76.5748 17.7736 75.0613 17.3683 73.2099 17.3683C70.6457 17.3683 68.6892 17.9291 67.3446 19.0495C66.0399 20.1319 65.3882 21.485 65.3882 23.1087C65.3882 24.4605 65.7872 25.6017 66.5865 26.5287C67.3845 27.4177 68.6679 28.3066 70.4342 29.1956C71.9658 29.937 73.5227 30.6333 75.1025 31.2834C77.7944 32.4038 79.9184 33.4287 81.4745 34.3568C83.0767 35.2883 84.4341 36.5359 85.4486 38.0095C86.5418 39.5156 87.0898 41.3915 87.0898 43.6323C87.0898 45.5658 86.4168 47.3242 85.0708 48.9099C83.7674 50.4552 81.9786 51.6723 79.7083 52.5613C77.4792 53.4503 75.0187 53.8948 72.3268 53.8948ZM104.264 53.4319C101.405 53.4319 99.1329 52.6385 97.4505 51.054C95.768 49.4695 94.9275 47.3817 94.9275 44.7919V34.0654C94.9275 33.0613 94.8849 32.3266 94.8011 31.8626C94.7599 31.3997 94.5072 30.9932 94.043 30.6454C93.5815 30.2977 92.8035 30.1238 91.7102 30.1238C91.2048 30.1238 90.8271 30.0662 90.5744 29.9499C90.3217 29.7956 90.1967 29.4662 90.1967 28.9642C90.1967 28.7315 90.2805 28.5197 90.4494 28.3274C90.6169 28.0948 90.8696 27.9601 91.2061 27.9209C93.8555 27.5719 96.1271 27.0699 98.0184 26.4123C98.6076 26.2201 99.0904 26.1038 99.4694 26.0646H99.6583C100.331 26.0646 100.669 26.4319 100.669 27.1666V44.7344C100.669 46.5123 101.278 47.885 102.498 48.8511C103.68 49.7663 105.18 50.2599 106.725 50.2421C108.701 50.2421 110.382 49.7977 111.771 48.9087C113.159 48.0197 114.085 47.1307 114.546 46.2417V34.0666C114.546 33.0613 114.505 32.3279 114.421 31.8626C114.379 31.3997 114.126 30.9932 113.663 30.6454C113.2 30.2977 112.422 30.1238 111.329 30.1238C110.824 30.1238 110.446 30.0662 110.195 29.9499C109.942 29.7956 109.815 29.4662 109.815 28.9642C109.815 28.7315 109.899 28.5197 110.068 28.3274C110.236 28.0948 110.488 27.9601 110.825 27.9209C113.474 27.5719 115.746 27.0699 117.639 26.4123C118.226 26.2201 118.711 26.1038 119.088 26.0646H119.278C119.951 26.0646 120.288 26.4319 120.288 27.1666V47.2287C120.288 49.5099 121.949 50.6499 125.271 50.6499C125.986 50.6499 126.343 51.0172 126.343 51.7519C126.343 52.2919 125.986 52.6213 125.271 52.7364L115.114 53.3744C114.82 53.3744 114.651 53.2777 114.609 53.0854C114.569 52.9299 114.546 52.6409 114.546 52.216V48.9675H114.421C113.456 49.8024 112.467 50.6141 111.455 51.4017C110.699 51.943 109.71 52.407 108.489 52.794C107.312 53.2189 105.904 53.4307 104.264 53.4307V53.4319ZM129.795 52.9103C129.648 52.9097 129.503 52.8779 129.371 52.8174C129.24 52.7568 129.125 52.6692 129.037 52.5613C128.869 52.3299 128.784 52.0593 128.784 51.7507C128.827 51.2487 128.953 50.9572 129.163 50.8813C129.374 50.765 129.752 50.7062 130.299 50.7062C131.392 50.7062 132.17 50.5323 132.633 50.1846C133.096 49.8368 133.349 49.4303 133.39 48.9675C133.475 48.5021 133.516 47.7687 133.516 46.7634V33.4862C133.516 32.4821 133.475 31.7474 133.39 31.2821C133.349 30.8193 133.096 30.4128 132.633 30.0662C132.17 29.7185 131.392 29.5434 130.299 29.5434C129.793 29.5434 129.416 29.4858 129.164 29.3695C128.912 29.2152 128.785 28.887 128.785 28.3838C128.785 28.1523 128.869 27.9393 129.038 27.747C129.206 27.5144 129.458 27.3797 129.795 27.3405C132.528 26.9536 134.778 26.4515 136.545 25.8332C137.26 25.6397 137.743 25.5234 137.996 25.4854H138.184C138.857 25.4854 139.194 25.8528 139.194 26.5874V30.1813H139.383C140.855 28.8283 142.349 27.7654 143.862 26.9928C145.377 26.1809 146.743 25.7756 147.963 25.7756C149.351 25.7756 150.444 26.2581 151.244 27.2242C152.084 28.1523 152.505 29.2348 152.505 30.4715C152.505 31.554 152.148 32.5201 151.433 33.3699C150.717 34.2209 149.729 34.6458 148.468 34.6458C147.919 34.6547 147.376 34.535 146.891 34.2981C146.47 34.0654 146.239 33.8732 146.196 33.7189C146.239 33.6417 146.449 33.4091 146.827 33.0221C147.206 32.5972 147.395 32.1148 147.395 31.5736C147.395 30.8768 147.184 30.3172 146.764 29.8923C146.385 29.4662 145.86 29.2544 145.187 29.2544C144.473 29.2544 143.568 29.5826 142.475 30.2401C141.38 30.8585 140.308 31.6507 139.258 32.6168V46.7634C139.258 47.7687 139.299 48.5021 139.383 48.9675C139.468 49.4303 139.74 49.8368 140.203 50.1846C140.666 50.5323 141.444 50.7062 142.537 50.7062H142.917C143.253 50.7062 143.504 50.765 143.673 50.8801C143.841 50.9964 143.946 51.2866 143.989 51.7495C143.989 52.0593 143.905 52.3299 143.736 52.5613C143.568 52.794 143.316 52.9103 142.979 52.9103C140.773 52.7999 138.565 52.7416 136.356 52.7352C134.463 52.7352 132.277 52.7952 129.795 52.9103ZM227.772 53.4319C224.912 53.4319 222.368 52.8123 220.139 51.5756C217.91 50.3009 216.165 48.6381 214.903 46.5895C213.7 44.5625 213.071 42.2894 213.074 39.9797C213.074 37.0813 213.81 34.5687 215.282 32.443C216.754 30.2781 218.625 28.6348 220.896 27.5144C223.167 26.3548 225.459 25.7756 227.772 25.7756C230.633 25.7756 233.177 26.4123 235.406 27.6883C237.592 28.8842 239.381 30.6086 240.578 32.6744C241.824 34.6668 242.477 36.9265 242.471 39.2254C242.471 42.125 241.714 44.6572 240.201 46.8221C238.728 48.9479 236.857 50.5899 234.585 51.7495C232.315 52.8711 230.044 53.4319 227.772 53.4319ZM227.772 51.2866C230.633 51.2866 232.714 50.165 234.018 47.923C235.364 45.6821 236.036 42.7826 236.036 39.2266C236.036 35.9021 235.342 33.1972 233.955 31.1083C232.609 28.9838 230.548 27.9209 227.772 27.9209C224.871 27.9209 222.768 29.023 221.464 31.2258C220.16 33.4287 219.509 36.3074 219.509 39.8646C219.509 43.1879 220.182 45.9332 221.528 48.0968C222.873 50.2238 224.955 51.2866 227.772 51.2866ZM258.367 53.7209C256.306 53.7209 254.539 53.0254 253.067 51.6344C251.596 50.2421 250.859 48.2523 250.859 45.6626V28.6164L247.201 28.7328C247.078 28.7337 246.957 28.7079 246.847 28.6574C246.738 28.607 246.643 28.5333 246.57 28.4426C246.405 28.2206 246.317 27.9575 246.317 27.6883C246.317 27.3405 246.381 27.0515 246.506 26.8189C246.675 26.5483 246.907 26.394 247.201 26.3548C248.673 26.0854 249.809 25.6593 250.608 25.0801C251.449 24.4605 252.059 23.8042 252.437 23.1087C252.816 22.374 253.279 21.2719 253.825 19.8026C254.035 19.3005 254.498 19.0495 255.212 19.0495C255.506 19.0495 255.802 19.1266 256.096 19.2821C256.389 19.3972 256.537 19.5907 256.537 19.8613L256.096 26.4711L263.477 26.0646H263.603C264.15 26.0646 264.423 26.4319 264.423 27.1666C264.423 27.5915 264.339 27.9981 264.17 28.3838C264.045 28.7328 263.876 28.9066 263.666 28.9066L256.601 28.7328V46.3581C256.601 47.634 256.874 48.6968 257.42 49.5466C258.009 50.3977 258.955 50.8226 260.26 50.8226C261.563 50.8226 262.72 50.6095 263.728 50.1846C264.276 49.9911 264.612 49.8944 264.738 49.8944C265.033 49.8944 265.265 50.0107 265.432 50.2421C265.601 50.4356 265.769 50.7075 265.938 51.054C265.982 51.1451 266.004 51.2443 266 51.3442C266 51.4985 265.874 51.6723 265.621 51.8658C264.401 52.6005 263.246 53.0842 262.152 53.3156C261.1 53.585 259.838 53.7209 258.367 53.7209ZM156.404 52.5613C156.572 52.794 156.824 52.9091 157.161 52.9091C159.346 52.7986 161.533 52.7407 163.722 52.7352C166.54 52.7352 169.168 52.794 171.607 52.9091C171.746 52.912 171.883 52.8814 172.005 52.8204C172.127 52.7594 172.229 52.6701 172.302 52.5613C172.469 52.3287 172.553 52.0593 172.553 51.7495C172.512 51.2866 172.407 50.9964 172.238 50.8801C172.111 50.765 171.86 50.7062 171.481 50.7062H171.102C169.715 50.7062 168.727 50.6095 168.137 50.416C167.548 50.2238 167.149 49.8748 166.939 49.3728C166.729 48.8315 166.624 47.9621 166.624 46.7646V28.7303H173.311C173.458 28.7297 173.602 28.6979 173.733 28.6376C173.865 28.5773 173.979 28.4901 174.068 28.3826C174.278 28.1511 174.383 27.8805 174.383 27.5707C174.34 27.1079 174.214 26.8177 174.004 26.7013C173.836 26.547 173.562 26.4687 173.185 26.4687H166.624V22.9911C166.624 21.136 166.708 19.5123 166.875 18.1201C167.032 16.7224 167.528 15.375 168.326 14.1772C169.126 12.9797 170.366 12.3809 172.049 12.3809C172.242 12.3809 172.429 12.3907 172.61 12.4115C172.586 11.762 172.633 11.1119 172.748 10.4707C172.662 10.4685 172.576 10.4673 172.49 10.467C168.789 10.5442 165.908 11.8385 163.848 14.3523C161.829 16.8258 160.82 20.0536 160.82 24.0344V26.4699H157.034C156.488 26.4699 156.109 26.5275 155.899 26.6438C155.689 26.7209 155.562 27.0307 155.521 27.5707C155.521 27.8805 155.605 28.1511 155.772 28.3826C155.984 28.6152 156.256 28.7315 156.593 28.7315H160.82V46.7634C160.82 47.8079 160.777 48.5609 160.693 49.025C160.652 49.4499 160.399 49.8368 159.937 50.1846C159.474 50.5323 158.696 50.7062 157.602 50.7062C157.056 50.7062 156.677 50.765 156.467 50.8801C156.299 50.9572 156.194 51.2475 156.151 51.7495C156.151 52.0593 156.235 52.3299 156.404 52.5613Z" fill="#9C9C9C"/>
<path fill-rule="evenodd" clip-rule="evenodd" d="M190.126 12.0797C190.125 12.9263 189.943 13.7645 189.59 14.5464C189.238 15.3282 188.721 16.0385 188.07 16.6366C187.42 17.2347 186.647 17.7089 185.797 18.0321C184.947 18.3554 184.037 18.5213 183.117 18.5205C181.26 18.5218 179.478 17.844 178.164 16.6362C176.85 15.4284 176.11 13.7894 176.108 12.0797C176.109 11.2329 176.29 10.3945 176.643 9.61247C176.996 8.83039 177.512 8.11991 178.163 7.52159C178.814 6.92328 179.586 6.44885 180.436 6.1254C181.286 5.80194 182.197 5.63579 183.117 5.63643C184.037 5.63563 184.948 5.80167 185.798 6.12507C186.648 6.44847 187.42 6.92289 188.071 7.52123C188.722 8.11958 189.239 8.83012 189.591 9.61228C189.944 10.3944 190.126 11.2329 190.126 12.0797ZM183.117 15.3001C183.577 15.3006 184.032 15.2177 184.457 15.0561C184.882 14.8945 185.268 14.6574 185.594 14.3583C185.919 14.0593 186.178 13.7041 186.354 13.3131C186.53 12.9222 186.621 12.503 186.621 12.0797C186.621 11.6563 186.53 11.237 186.354 10.8459C186.178 10.4548 185.92 10.0995 185.594 9.80029C185.269 9.5011 184.883 9.26389 184.457 9.10222C184.032 8.94055 183.577 8.85758 183.117 8.85807C182.189 8.85774 181.298 9.19673 180.641 9.80057C179.984 10.4044 179.614 11.2237 179.612 12.0785C179.613 12.9335 179.983 13.7531 180.64 14.3572C181.297 14.9613 182.188 15.3004 183.117 15.3001ZM180.045 21.3234V52.3887C180.045 52.7352 180.151 53.0058 180.361 53.1993C180.571 53.4319 180.865 53.547 181.244 53.547C181.622 53.547 181.937 53.3928 182.19 53.0842C182.443 52.8136 182.674 52.407 182.884 51.8658C183.094 51.3246 183.283 50.8997 183.452 50.5899H183.767C186.5 52.4842 189.739 53.4307 193.482 53.4307C196.006 53.4307 198.381 52.8124 200.61 51.5756C202.84 50.3389 204.606 48.6577 205.91 46.5307C207.255 44.3671 207.928 41.9903 207.928 39.4005C207.928 36.7715 207.34 34.434 206.162 32.3842C205.027 30.2977 203.45 28.674 201.431 27.5144C199.412 26.3548 197.162 25.7756 194.681 25.7756C193.166 25.7756 191.632 26.0646 190.075 26.645C188.562 27.1862 187.195 28.0164 185.975 29.1381H185.786V21.4287C183.898 21.8799 181.912 21.8435 180.045 21.3234ZM199.097 48.2707C197.541 50.3977 195.479 51.4605 192.915 51.4605C191.569 51.4605 190.371 51.1899 189.319 50.6487C188.309 50.1075 187.489 49.4695 186.858 48.7348C186.269 47.9622 185.913 47.2654 185.786 46.6483V31.3421C187.594 29.563 189.823 28.674 192.473 28.674C195.459 28.674 197.708 29.7564 199.223 31.9213C200.737 34.047 201.494 36.6173 201.494 39.6319C201.494 43.2271 200.696 46.1071 199.097 48.2707ZM16.8909 0.449495C17.337 0.156809 17.8712 -0.000488281 18.419 -0.000488281C18.9669 -0.000488281 19.5011 0.156809 19.9472 0.449495C31.332 7.92378 36.4924 16.8834 36.8183 29.7393C36.9686 35.8777 36.3262 41.4981 34.3697 46.3532C32.3614 51.2119 28.793 55.6997 23.5395 59.4907C23.2124 59.7247 22.83 59.8844 22.4233 59.9567C22.0165 60.0291 21.597 60.0121 21.1987 59.907C19.5894 59.4822 19.3155 57.7287 18.419 56.6364C17.5226 57.7287 17.2513 59.4809 15.6393 59.9058C15.2413 60.0106 14.822 60.0275 14.4155 59.9552C14.0091 59.8829 13.6268 59.7233 13.2999 59.4895C8.04638 55.6997 4.47666 51.2119 2.46969 46.3532C0.51459 41.4981 -0.12913 35.8777 0.0211598 29.7393C0.34568 16.8834 5.50608 7.92256 16.8909 0.449495ZM22.7775 53.9536C26.0652 51.174 28.0469 48.1434 29.4461 44.6573C31.2083 40.396 31.7164 35.6866 31.5634 29.8519C31.3107 19.827 28.7571 13.3042 21.0258 7.24786V24.9638C24.0489 25.6789 25.4055 28.4046 25.4055 31.4046C25.4055 34.407 24.0489 37.1328 21.0258 37.8479V52.3421C21.0258 52.3421 22.4303 53.5336 22.7775 53.9536ZM14.0154 53.9536C10.7277 51.174 8.79251 48.1434 7.39202 44.6573C5.6311 40.396 5.12304 35.6866 5.27732 29.8519C5.53002 19.8479 8.06899 13.2968 15.7684 7.24786V24.9638C12.7453 25.6789 11.3873 28.4046 11.3873 31.4046C11.3873 34.407 12.7439 37.1328 15.7684 37.8479V52.3421C15.7684 52.3421 14.3506 53.5483 14.0154 53.9536ZM18.3964 28.1842C17.4679 28.1835 16.5771 28.5224 15.9199 29.1263C15.2627 29.7302 14.8929 30.5497 14.8919 31.4046C14.8919 33.185 16.4613 34.6262 18.3964 34.6262C19.325 34.6269 20.2158 34.288 20.873 33.6841C21.5302 33.0802 21.8999 32.2607 21.901 31.4058C21.901 29.6266 20.3316 28.1842 18.3964 28.1842Z" fill="#9C9C9C"/>
</g>
<defs>
<clipPath id="clip0_158_9">
<rect width="266" height="60" fill="white"/>
</clipPath>
</defs>
</svg>
