<svg width="261" height="42" viewBox="0 0 261 42" fill="none" xmlns="http://www.w3.org/2000/svg">
<path d="M28.8219 40.7091C27.2594 40.748 25.7115 40.4213 24.3209 39.7591C22.9379 39.1016 21.7583 38.128 20.8933 36.9303C18.17 39.2508 14.6417 40.5911 10.946 40.7091C4.30517 40.7091 0.705765 36.43 1.92155 30.2955C2.8457 25.683 6.98042 21.0605 8.13628 17.3497C5.89913 16.1045 2.57804 15.2373 1.02136 17.782L0 17.215C0.814959 14.4257 2.78444 12.5703 5.63014 12.5703C8.47584 12.5703 10.5798 14.1144 13.2924 12.6926H15.4563C14.3017 18.249 11.3828 22.6935 9.82612 30.4734C8.87799 35.2417 10.6411 37.4084 13.6213 37.4084C15.8228 37.1572 17.8479 36.164 19.3113 34.6178C18.1229 31.9047 17.5237 29.0006 17.5483 26.0721C17.5483 19.315 20.9413 12.1923 26.6327 12.1923C29.5516 12.1923 31.7155 14.0477 31.7155 18.4491C31.7155 22.8492 28.7979 29.6618 25.076 33.9397C25.2771 34.9588 25.8616 35.8815 26.7272 36.5498C27.5928 37.2169 28.686 37.5875 29.8192 37.5974C35.243 37.5974 39.0368 30.1609 39.0368 23.2828C39.0368 16.4047 35.7783 16.7147 36.0579 14.3924C36.0831 14.1021 36.1699 13.8194 36.3131 13.5604C36.4564 13.3013 36.6534 13.0711 36.8929 12.8828C37.3776 12.4999 38.0088 12.3084 38.648 12.348C40.3391 12.348 42.563 14.3034 42.563 22.239C42.563 32.3511 36.6785 40.7091 28.8219 40.7091ZM27.5941 15.682C25.9029 15.682 24.273 21.3829 24.0666 27.2728C23.9877 28.5323 24.0122 29.7955 24.1398 31.0515C26.6901 27.1988 28.2464 22.8516 28.6874 18.349C28.6754 16.3478 28.2746 15.6808 27.5928 15.6808L27.5941 15.682ZM53.7034 40.4534C52.9942 40.5204 52.2778 40.4441 51.6034 40.2298C50.9316 40.0168 50.3181 39.6703 49.8057 39.2144C49.2966 38.761 48.9019 38.2088 48.6499 37.5974C48.3983 36.9885 48.2964 36.3352 48.3516 35.6851C48.3516 32.9625 52.22 19.3928 52.22 17.1594C52.22 16.1045 51.9523 15.4819 50.931 15.4819C49.7914 15.6515 48.7301 16.1264 47.8775 16.8481V14.926C49.648 13.4362 51.9333 12.5812 54.3226 12.5147C55.0362 12.4558 55.7552 12.5401 56.4306 12.7618C57.1044 12.9841 57.717 13.3362 58.227 13.797C58.7357 14.2565 59.1298 14.8124 59.3802 15.4275C59.6292 16.0402 59.7304 16.6962 59.6731 17.3484C59.6731 20.071 55.8074 33.5851 55.8074 35.8074C55.8074 36.8636 56.0737 37.4862 57.0964 37.4862C58.2206 37.3128 59.2744 36.8637 60.1485 36.1854V38.0408C58.3848 39.5408 56.0954 40.3978 53.7034 40.4534ZM58.4454 1.23401C58.9753 1.21919 59.5027 1.30813 59.9914 1.49836C60.4788 1.6886 60.9169 1.97272 61.2711 2.33219C61.6267 2.68892 61.8926 3.11436 62.0496 3.57789C62.2067 4.04141 62.2509 4.53147 62.1793 5.01278C62.0485 6.04042 61.5176 6.98839 60.6865 7.67854C59.8482 8.375 58.7688 8.76985 57.6437 8.79154C57.1143 8.80709 56.5876 8.71694 56.099 8.52719C55.612 8.33846 55.175 8.05398 54.818 7.69336C54.4624 7.33663 54.1965 6.91119 54.0394 6.44766C53.8824 5.98414 53.8381 5.49408 53.9098 5.01278C54.0407 3.98516 54.5715 3.03723 55.4026 2.34701C56.2411 1.6511 57.3205 1.25547 58.4454 1.23401ZM73.5008 34.6302C73.1612 36.3077 73.3676 37.4751 74.6566 37.4751C75.7849 37.3139 76.842 36.8634 77.7087 36.1743L77.8299 38.0408C76.0597 39.5311 73.7743 40.3866 71.3848 40.4534C67.1769 40.4534 65.5483 37.6641 66.1688 34.1966L70.3035 12.6926C71.6778 5.51307 71.2024 4.56807 66.9944 4.56807L67.2621 2.83495L79.9459 1.30072L73.5008 34.6302ZM109.17 34.5734C108.829 36.2521 108.962 37.4862 110.324 37.4862C111.455 37.2902 112.509 36.8182 113.378 36.1187V38.0408C111.619 39.5479 109.327 40.406 106.933 40.4534C105.722 40.5348 104.521 40.1978 103.562 39.5071C102.611 38.8233 101.973 37.8316 101.775 36.7302C100.755 37.9636 99.4444 38.9653 97.9442 39.6591C96.4364 40.3575 94.7783 40.7316 93.0931 40.7535C85.0301 40.7535 81.6371 34.2522 83.1937 26.439C84.7504 18.627 92.0092 12.2479 100.219 12.2479C102.159 12.2102 104.079 12.6265 105.801 13.4585L106.007 12.4702C107.613 4.82378 106.872 4.56807 102.664 4.56807L102.87 2.83495L115.614 1.30072L109.169 34.5746L109.17 34.5734ZM100.425 15.0483C95.7431 15.0483 92.631 20.1266 91.4019 26.3834C90.1129 32.9514 90.9279 37.4973 95.3302 37.4973C98.3091 37.4973 101.702 34.162 102.723 29.0726L105.23 16.1823C103.781 15.38 102.111 14.986 100.425 15.0483ZM130.597 40.7634C121.172 40.7634 118.594 34.5622 119.75 28.6168L122.826 12.6926C124.249 5.50319 123.775 4.51248 119.567 4.51248L119.834 2.77936L132.555 1.30072L129.977 14.8037C131.966 13.2274 134.476 12.3295 137.092 12.259C145.3 12.259 149.155 18.6381 147.671 26.4501C146.188 34.2633 138.636 40.7634 130.597 40.7634ZM135 15.204C133.632 15.2287 132.308 15.6494 131.211 16.4071C130.123 17.1589 129.32 18.2123 128.919 19.4151L127.022 29.4172C125.866 35.3627 128.178 37.7851 131.097 37.7851C135.364 37.7851 138.016 33.4517 139.438 26.3278C140.703 19.9487 139.548 15.2373 134.988 15.2373L135 15.204ZM160.526 30.051C160.526 34.8192 163.03 37.3639 167.822 37.3639C170.255 37.3639 173.793 35.8198 176.031 33.7741L176.979 35.7518C175.367 37.312 173.435 38.5584 171.297 39.4182C169.151 40.2814 166.841 40.7424 164.502 40.7745C157.388 40.7745 152.572 35.9408 152.572 29.3728C152.572 19.6485 161.389 12.2701 169.866 12.2701C175.022 12.2701 177.927 14.8704 177.927 17.9043C177.867 22.6157 172.979 27.9065 160.526 30.051ZM169.269 15.115C165.402 15.115 161.682 20.26 160.659 27.6285C168.454 25.8942 171.774 21.0605 171.847 17.9599C171.835 16.2268 170.947 15.115 169.257 15.115H169.269ZM205.595 40.4534C204.384 40.5347 203.183 40.1976 202.224 39.5071C201.273 38.8232 200.636 37.8315 200.439 36.7302C199.455 37.9631 198.176 38.9667 196.702 39.6615C195.221 40.3607 193.587 40.734 191.926 40.7523C183.997 40.7523 180.604 34.2522 182.197 26.439C183.789 18.627 190.928 12.2578 199.162 12.2578C200.906 12.2496 202.635 12.5676 204.244 13.1929H211.979L207.832 34.5734C207.491 36.2521 207.625 37.4862 208.988 37.4862C210.118 37.2899 211.171 36.8179 212.04 36.1187V38.0408C210.281 39.5478 207.989 40.4059 205.595 40.4534ZM199.356 15.0483C194.807 15.0483 191.622 20.1266 190.405 26.3834C189.116 32.9514 190.004 37.4973 194.053 37.4973C197.167 37.4973 200.499 34.0298 201.448 29.0726L203.953 16.1823C202.585 15.38 200.985 14.9844 199.368 15.0483H199.356ZM235.706 19.5707C233.869 19.5707 233.394 18.2712 232.86 16.9037C232.677 16.2125 232.24 15.6024 231.623 15.1792C231.001 14.7526 230.24 14.5375 229.467 14.5702C228.463 14.5209 227.475 14.8175 226.693 15.4028C225.917 15.9823 225.405 16.8121 225.259 17.7264C225.053 19.4052 226.413 20.827 228.992 22.8714L232.446 25.4717C233.729 26.3584 234.726 27.5547 235.327 28.9305C235.925 30.3017 236.102 31.7964 235.839 33.2516C234.963 37.8963 230.756 40.7523 225.124 40.7523C218.338 40.7523 214.009 37.0958 214.483 34.6178C214.594 33.9668 214.953 33.3702 215.499 32.9403C216.045 32.508 216.742 32.2683 217.464 32.2621C219.227 32.2621 219.895 33.4962 220.442 35.107C220.794 36.0335 221.469 36.8265 222.364 37.3651C223.262 37.9042 224.325 38.157 225.392 38.0853C226.446 38.1317 227.482 37.8159 228.3 37.1984C229.112 36.5861 229.645 35.7129 229.795 34.7525C230.062 32.529 228.579 31.1627 225.794 28.8614L222.401 26.1388C221.209 25.307 220.276 24.1954 219.701 22.9184C219.128 21.6477 218.935 20.2576 219.141 18.8938C219.75 15.9155 222.79 12.2257 229.783 12.2257C235.206 12.2257 238.599 15.015 238.296 17.2484C238.262 17.8644 237.976 18.4452 237.497 18.8728C237.017 19.3027 236.377 19.5522 235.706 19.5707ZM260.526 15.682H253.946L250.761 32.151C250.079 35.5628 250.627 37.1082 252.657 37.1082C253.74 37.1082 255.442 36.5523 257.875 34.2633L258.008 36.6746C256.903 37.8699 255.534 38.8306 253.993 39.4911C252.445 40.1553 250.763 40.5057 249.058 40.5188C244.449 40.5188 242.139 37.5418 243.233 32.0287L246.419 15.682H241.275L241.677 13.1373H246.869L248.231 5.76878H255.82L254.396 13.1361H260.976L260.526 15.682Z" fill="#9C9C9C"/>
</svg>
